<svg width="39" height="28" viewBox="0 0 39 28" fill="none" xmlns="http://www.w3.org/2000/svg">
<rect x="0.5" y="0.5" width="38" height="27" rx="8" fill="#3B3B41"/>
<path d="M7.28418 18.7203V9.2658H13.4333V10.7015H8.99689V13.2683H13.1148V14.704H8.99689V17.2846H13.4703V18.7203H7.28418Z" fill="#B1B1B3"/>
<path d="M20.3188 11.8649C20.2757 11.4617 20.0941 11.1478 19.7741 10.9231C19.4571 10.6984 19.0447 10.5861 18.5368 10.5861C18.1798 10.5861 17.8736 10.64 17.6182 10.7477C17.3627 10.8554 17.1673 11.0016 17.0319 11.1863C16.8965 11.3709 16.8272 11.5817 16.8241 11.8187C16.8241 12.0157 16.8688 12.1865 16.958 12.3311C17.0503 12.4758 17.175 12.5989 17.3319 12.7005C17.4889 12.7989 17.6628 12.882 17.8536 12.9497C18.0444 13.0175 18.2368 13.0744 18.4307 13.1206L19.317 13.3421C19.674 13.4252 20.0172 13.5376 20.3465 13.6791C20.6789 13.8207 20.9759 13.9992 21.2375 14.2147C21.5022 14.4301 21.7114 14.6902 21.8653 14.9948C22.0192 15.2995 22.0961 15.6565 22.0961 16.0659C22.0961 16.6198 21.9546 17.1077 21.6714 17.5293C21.3883 17.9479 20.979 18.2756 20.4434 18.5126C19.911 18.7465 19.2662 18.8635 18.5091 18.8635C17.7736 18.8635 17.135 18.7496 16.5933 18.5218C16.0547 18.2941 15.6331 17.9617 15.3284 17.5247C15.0268 17.0876 14.8637 16.5552 14.839 15.9274H16.5241C16.5487 16.2567 16.6502 16.5306 16.8287 16.7491C17.0073 16.9676 17.2396 17.1307 17.5258 17.2385C17.8151 17.3462 18.1383 17.4 18.4953 17.4C18.8677 17.4 19.1939 17.3446 19.474 17.2338C19.7571 17.12 19.9787 16.963 20.1388 16.763C20.2988 16.5598 20.3804 16.3229 20.3834 16.052C20.3804 15.8058 20.308 15.6027 20.1665 15.4426C20.0249 15.2795 19.8264 15.1441 19.5709 15.0364C19.3186 14.9256 19.0231 14.8271 18.6846 14.7409L17.6089 14.464C16.8303 14.2639 16.2148 13.9608 15.7623 13.5545C15.313 13.1452 15.0883 12.602 15.0883 11.9249C15.0883 11.3678 15.2391 10.88 15.5407 10.4615C15.8454 10.0429 16.2594 9.71821 16.7826 9.48739C17.3058 9.25349 17.8982 9.13654 18.5599 9.13654C19.2309 9.13654 19.8187 9.25349 20.3234 9.48739C20.8312 9.71821 21.2298 10.0398 21.5191 10.4522C21.8084 10.8616 21.9577 11.3324 21.9669 11.8649H20.3188Z" fill="#B1B1B3"/>
<path d="M31.7157 12.4558H29.9892C29.9399 12.1726 29.8491 11.9218 29.7168 11.7033C29.5845 11.4817 29.4198 11.294 29.2228 11.1401C29.0259 10.9862 28.8012 10.8708 28.5488 10.7939C28.2995 10.7138 28.0302 10.6738 27.7409 10.6738C27.227 10.6738 26.7715 10.8031 26.3745 11.0616C25.9775 11.3171 25.6666 11.6925 25.4419 12.188C25.2173 12.6805 25.1049 13.2821 25.1049 13.9931C25.1049 14.7163 25.2173 15.3257 25.4419 15.8212C25.6697 16.3136 25.9805 16.686 26.3745 16.9384C26.7715 17.1877 27.2254 17.3123 27.7363 17.3123C28.0195 17.3123 28.2842 17.2754 28.5304 17.2015C28.7797 17.1246 29.0028 17.0122 29.1998 16.8645C29.3998 16.7168 29.5675 16.5352 29.7029 16.3198C29.8414 16.1043 29.9368 15.8581 29.9892 15.5811L31.7157 15.5904C31.6511 16.0397 31.5111 16.4613 31.2956 16.8553C31.0833 17.2492 30.8047 17.597 30.4601 17.8986C30.1154 18.1971 29.7122 18.431 29.2505 18.6003C28.7889 18.7665 28.2765 18.8496 27.7132 18.8496C26.8823 18.8496 26.1406 18.6573 25.4881 18.2725C24.8356 17.8878 24.3217 17.3323 23.9462 16.606C23.5707 15.8797 23.383 15.0087 23.383 13.9931C23.383 12.9744 23.5723 12.1034 23.9508 11.3801C24.3294 10.6538 24.8449 10.0983 25.4973 9.71359C26.1498 9.32889 26.8884 9.13654 27.7132 9.13654C28.2395 9.13654 28.7289 9.2104 29.1813 9.35813C29.6337 9.50585 30.0369 9.72283 30.3908 10.009C30.7447 10.2922 31.0356 10.64 31.2633 11.0524C31.4941 11.4617 31.6449 11.9295 31.7157 12.4558Z" fill="#B1B1B3"/>
</svg>
