<svg width="48" height="48" viewBox="0 0 48 48" fill="none" xmlns="http://www.w3.org/2000/svg">
<path d="M33.7005 0H14.2995C6.4147 0 0 6.4147 0 14.2995V33.7005C0 41.5853 6.4147 48 14.2995 48H33.7005C41.5853 48 48 41.5853 48 33.7005V14.2995C47.9999 6.4147 41.5852 0 33.7005 0ZM43.1712 33.7005C43.1712 38.931 38.931 43.1712 33.7005 43.1712H14.2995C9.069 43.1712 4.8288 38.931 4.8288 33.7005V14.2995C4.8288 9.06891 9.069 4.8288 14.2995 4.8288H33.7005C38.931 4.8288 43.1712 9.06891 43.1712 14.2995V33.7005Z" fill="url(#paint0_linear)"/>
<path d="M24 11.5855C17.1546 11.5855 11.5855 17.1546 11.5855 23.9999C11.5855 30.8452 17.1546 36.4144 24 36.4144C30.8454 36.4144 36.4145 30.8453 36.4145 23.9999C36.4145 17.1546 30.8454 11.5855 24 11.5855ZM24 31.5857C19.8105 31.5857 16.4143 28.1895 16.4143 24C16.4143 19.8105 19.8106 16.4143 24 16.4143C28.1895 16.4143 31.5857 19.8105 31.5857 24C31.5857 28.1894 28.1894 31.5857 24 31.5857Z" fill="url(#paint1_linear)"/>
<path d="M36.4386 14.6535C38.0815 14.6535 39.4133 13.3216 39.4133 11.6787C39.4133 10.0358 38.0815 8.70392 36.4386 8.70392C34.7957 8.70392 33.4638 10.0358 33.4638 11.6787C33.4638 13.3216 34.7957 14.6535 36.4386 14.6535Z" fill="url(#paint2_linear)"/>
<defs>
<linearGradient id="paint0_linear" x1="24" y1="47.8603" x2="24" y2="0.372824" gradientUnits="userSpaceOnUse">
<stop stop-color="#E09B3D"/>
<stop offset="0.3" stop-color="#C74C4D"/>
<stop offset="0.6" stop-color="#C21975"/>
<stop offset="1" stop-color="#7024C4"/>
</linearGradient>
<linearGradient id="paint1_linear" x1="24" y1="47.8603" x2="24" y2="0.372846" gradientUnits="userSpaceOnUse">
<stop stop-color="#E09B3D"/>
<stop offset="0.3" stop-color="#C74C4D"/>
<stop offset="0.6" stop-color="#C21975"/>
<stop offset="1" stop-color="#7024C4"/>
</linearGradient>
<linearGradient id="paint2_linear" x1="36.4386" y1="47.8603" x2="36.4386" y2="0.372818" gradientUnits="userSpaceOnUse">
<stop stop-color="#E09B3D"/>
<stop offset="0.3" stop-color="#C74C4D"/>
<stop offset="0.6" stop-color="#C21975"/>
<stop offset="1" stop-color="#7024C4"/>
</linearGradient>
</defs>
</svg>
