<svg width="16" height="16" viewBox="0 0 16 16" fill="none" xmlns="http://www.w3.org/2000/svg">
<path d="M12.0025 12.2381L11.6842 11.9198L11.3343 12.2031C10.3322 13.0144 9.0568 13.5 7.66671 13.5C4.44504 13.5 1.83337 10.8883 1.83337 7.66668C1.83337 4.44501 4.44504 1.83334 7.66671 1.83334C10.8884 1.83334 13.5 4.44501 13.5 7.66668C13.5 9.05677 13.0144 10.3322 12.2031 11.3343L11.9199 11.6841L12.2382 12.0024L14.1179 13.8822C14.183 13.9472 14.183 14.0528 14.1179 14.1179C14.0528 14.1829 13.9473 14.1829 13.8822 14.1179L12.0025 12.2381ZM7.66671 2.16668C4.62914 2.16668 2.16671 4.62911 2.16671 7.66668C2.16671 10.7042 4.62914 13.1667 7.66671 13.1667C10.7043 13.1667 13.1667 10.7042 13.1667 7.66668C13.1667 4.62911 10.7042 2.16668 7.66671 2.16668Z" fill="black" stroke="#A3AEB8"/>
</svg>
